<svg width="19" height="19" viewBox="0 0 19 19" fill="none" xmlns="http://www.w3.org/2000/svg">
<path d="M0.493832 0.493283C-0.0969023 1.08402 -0.0969023 2.04179 0.493832 2.63252L6.91154 9.05023L0.493832 15.4679C-0.0969023 16.0587 -0.0969023 17.0164 0.493832 17.6072C1.08457 18.1979 2.04233 18.1979 2.63307 17.6072L9.05078 11.1895L15.4685 17.6072C16.0592 18.1979 17.017 18.1979 17.6077 17.6072C18.1985 17.0164 18.1985 16.0587 17.6077 15.4679L11.19 9.05023L17.6077 2.63252C18.1985 2.04179 18.1985 1.08402 17.6077 0.493283C17.017 -0.0974514 16.0592 -0.0974519 15.4685 0.493283L9.05078 6.91099L2.63307 0.493283C2.04233 -0.0974514 1.08457 -0.0974519 0.493832 0.493283Z" fill="black"/>
</svg>
