<svg width="22" height="22" viewBox="0 0 22 22" fill="none" xmlns="http://www.w3.org/2000/svg">
<path d="M1.28333 22C1.07963 22 0.865741 21.9951 0.641667 21.9853C0.417593 21.9747 0.203704 21.9593 0 21.9389L0 14.7889L6.11111 13.5667L9.65555 17.1111C11.2037 16.1741 12.6247 15.0639 13.9187 13.7806C15.2118 12.4972 16.2861 11.1222 17.1417 9.65555L13.6583 6.14167L14.7889 0L21.9389 0C21.9796 0.203704 22 0.417593 22 0.641667V1.28333C22 3.91111 21.4141 6.47248 20.2424 8.96744C19.0716 11.4632 17.5234 13.6787 15.598 15.6139C13.6734 17.5491 11.4636 19.0972 8.96867 20.2583C6.47289 21.4194 3.91111 22 1.28333 22Z" fill="black"/>
</svg>
