<svg width="1150" height="73" viewBox="0 0 1150 73" fill="none" xmlns="http://www.w3.org/2000/svg">
<rect y="35" width="1150" height="4" rx="2" fill="#DEDEDE"/>
<path d="M166 36.5547C166 53.1232 152.569 66.5547 136 66.5547C119.431 66.5547 106 53.1232 106 36.5547C106 19.9861 119.431 6.55469 136 6.55469C152.569 6.55469 166 19.9861 166 36.5547Z" fill="white"/>
<path d="M166 36.5547C166 53.1232 152.569 66.5547 136 66.5547C119.431 66.5547 106 53.1232 106 36.5547C106 19.9861 119.431 6.55469 136 6.55469C152.569 6.55469 166 19.9861 166 36.5547Z" fill="white"/>
<path d="M158.5 36.5547C158.5 48.9811 144.5 63.0547 136 72.5547C128 63.5547 113.5 48.9811 113.5 36.5547C113.5 24.1283 123.574 14.0547 136 14.0547C148.426 14.0547 158.5 24.1283 158.5 36.5547Z" fill="white"/>
<path d="M158.5 36.5547C158.5 48.9811 144.5 63.0547 136 72.5547C128 63.5547 113.5 48.9811 113.5 36.5547C113.5 24.1283 123.574 14.0547 136 14.0547C148.426 14.0547 158.5 24.1283 158.5 36.5547Z" fill="#6A1AF9"/>
<path d="M136.939 29.9547V42.5547H135.157V31.5207H132.313V29.9547H136.939Z" fill="white"/>
<path d="M345 36.5547C345 53.1232 331.569 66.5547 315 66.5547C298.431 66.5547 285 53.1232 285 36.5547C285 19.9861 298.431 6.55469 315 6.55469C331.569 6.55469 345 19.9861 345 36.5547Z" fill="white"/>
<path d="M345 36.5547C345 53.1232 331.569 66.5547 315 66.5547C298.431 66.5547 285 53.1232 285 36.5547C285 19.9861 298.431 6.55469 315 6.55469C331.569 6.55469 345 19.9861 345 36.5547Z" fill="white"/>
<path d="M337.5 36.5547C337.5 48.9811 327.426 59.0547 315 59.0547C302.574 59.0547 292.5 48.9811 292.5 36.5547C292.5 24.1283 302.574 14.0547 315 14.0547C327.426 14.0547 337.5 24.1283 337.5 36.5547Z" fill="white"/>
<path d="M337.5 36.5547C337.5 48.9811 327.426 59.0547 315 59.0547C302.574 59.0547 292.5 48.9811 292.5 36.5547C292.5 24.1283 302.574 14.0547 315 14.0547C327.426 14.0547 337.5 24.1283 337.5 36.5547Z" fill="#6A1AF9"/>
<path d="M292.5 36.5547C292.5 24.1283 306.5 10.0547 315 0.554689C323 9.55469 337.5 24.1283 337.5 36.5547C337.5 48.9811 327.426 59.0547 315 59.0547C302.574 59.0547 292.5 48.9811 292.5 36.5547Z" fill="white"/>
<path d="M292.5 36.5547C292.5 24.1283 306.5 10.0547 315 0.554689C323 9.55469 337.5 24.1283 337.5 36.5547C337.5 48.9811 327.426 59.0547 315 59.0547C302.574 59.0547 292.5 48.9811 292.5 36.5547Z" fill="#6A1AF9"/>
<path d="M292.5 36.5547C292.5 24.1283 306.5 10.0547 315 0.554689C323 9.55469 337.5 24.1283 337.5 36.5547C337.5 48.9811 327.426 59.0547 315 59.0547C302.574 59.0547 292.5 48.9811 292.5 36.5547Z" fill="white"/>
<path d="M292.5 36.5547C292.5 24.1283 306.5 10.0547 315 0.554689C323 9.55469 337.5 24.1283 337.5 36.5547C337.5 48.9811 327.426 59.0547 315 59.0547C302.574 59.0547 292.5 48.9811 292.5 36.5547Z" fill="#6A1AF9"/>
<path d="M319.052 40.9887V42.5547H309.998V41.3307L315.128 36.3807C315.752 35.7807 316.172 35.2647 316.388 34.8327C316.604 34.3887 316.712 33.9447 316.712 33.5007C316.712 32.8407 316.478 32.3307 316.01 31.9707C315.554 31.5987 314.894 31.4127 314.03 31.4127C312.638 31.4127 311.564 31.8687 310.808 32.7807L309.584 31.7187C310.076 31.1187 310.718 30.6507 311.51 30.3147C312.314 29.9787 313.208 29.8107 314.192 29.8107C315.512 29.8107 316.562 30.1287 317.342 30.7647C318.122 31.3887 318.512 32.2407 318.512 33.3207C318.512 33.9927 318.368 34.6287 318.08 35.2287C317.792 35.8287 317.246 36.5127 316.442 37.2807L312.59 40.9887H319.052Z" fill="white"/>
<path d="M524 36.5547C524 53.1232 510.569 66.5547 494 66.5547C477.431 66.5547 464 53.1232 464 36.5547C464 19.9861 477.431 6.55469 494 6.55469C510.569 6.55469 524 19.9861 524 36.5547Z" fill="white"/>
<path d="M524 36.5547C524 53.1232 510.569 66.5547 494 66.5547C477.431 66.5547 464 53.1232 464 36.5547C464 19.9861 477.431 6.55469 494 6.55469C510.569 6.55469 524 19.9861 524 36.5547Z" fill="white"/>
<path d="M516.5 36.5547C516.5 48.9811 506.426 59.0547 494 59.0547C481.574 59.0547 471.5 48.9811 471.5 36.5547C471.5 24.1283 481.574 14.0547 494 14.0547C506.426 14.0547 516.5 24.1283 516.5 36.5547Z" fill="white"/>
<path d="M516.5 36.5547C516.5 48.9811 506.426 59.0547 494 59.0547C481.574 59.0547 471.5 48.9811 471.5 36.5547C471.5 24.1283 481.574 14.0547 494 14.0547C506.426 14.0547 516.5 24.1283 516.5 36.5547Z" fill="#6A1AF9"/>
<path d="M516.5 36.5547C516.5 48.9811 502.5 63.0547 494 72.5547C486 63.5547 471.5 48.9811 471.5 36.5547C471.5 24.1283 481.574 14.0547 494 14.0547C506.426 14.0547 516.5 24.1283 516.5 36.5547Z" fill="white"/>
<path d="M516.5 36.5547C516.5 48.9811 502.5 63.0547 494 72.5547C486 63.5547 471.5 48.9811 471.5 36.5547C471.5 24.1283 481.574 14.0547 494 14.0547C506.426 14.0547 516.5 24.1283 516.5 36.5547Z" fill="#6A1AF9"/>
<path d="M494.038 35.2467C495.274 35.3667 496.216 35.7507 496.864 36.3987C497.512 37.0347 497.836 37.8507 497.836 38.8467C497.836 39.5667 497.656 40.2207 497.296 40.8087C496.936 41.3847 496.396 41.8467 495.676 42.1947C494.968 42.5307 494.098 42.6987 493.066 42.6987C492.166 42.6987 491.302 42.5667 490.474 42.3027C489.646 42.0267 488.968 41.6487 488.44 41.1687L489.268 39.7467C489.7 40.1547 490.252 40.4847 490.924 40.7367C491.596 40.9767 492.31 41.0967 493.066 41.0967C494.002 41.0967 494.728 40.8987 495.244 40.5027C495.772 40.1067 496.036 39.5607 496.036 38.8647C496.036 38.1687 495.778 37.6287 495.262 37.2447C494.746 36.8607 493.966 36.6687 492.922 36.6687H491.914V35.4087L495.082 31.5207H489.016V29.9547H497.332V31.1787L494.038 35.2467Z" fill="white"/>
<path d="M703 36.5547C703 53.1232 689.569 66.5547 673 66.5547C656.431 66.5547 643 53.1232 643 36.5547C643 19.9861 656.431 6.55469 673 6.55469C689.569 6.55469 703 19.9861 703 36.5547Z" fill="white"/>
<path d="M703 36.5547C703 53.1232 689.569 66.5547 673 66.5547C656.431 66.5547 643 53.1232 643 36.5547C643 19.9861 656.431 6.55469 673 6.55469C689.569 6.55469 703 19.9861 703 36.5547Z" fill="white"/>
<path d="M695.5 36.5547C695.5 48.9811 685.426 59.0547 673 59.0547C660.574 59.0547 650.5 48.9811 650.5 36.5547C650.5 24.1283 660.574 14.0547 673 14.0547C685.426 14.0547 695.5 24.1283 695.5 36.5547Z" fill="white"/>
<path d="M695.5 36.5547C695.5 48.9811 685.426 59.0547 673 59.0547C660.574 59.0547 650.5 48.9811 650.5 36.5547C650.5 24.1283 660.574 14.0547 673 14.0547C685.426 14.0547 695.5 24.1283 695.5 36.5547Z" fill="#6A1AF9"/>
<path d="M650.5 36.5547C650.5 24.1283 664.5 10.0547 673 0.554689C681 9.55469 695.5 24.1283 695.5 36.5547C695.5 48.9811 685.426 59.0547 673 59.0547C660.574 59.0547 650.5 48.9811 650.5 36.5547Z" fill="white"/>
<path d="M650.5 36.5547C650.5 24.1283 664.5 10.0547 673 0.554689C681 9.55469 695.5 24.1283 695.5 36.5547C695.5 48.9811 685.426 59.0547 673 59.0547C660.574 59.0547 650.5 48.9811 650.5 36.5547Z" fill="#6A1AF9"/>
<path d="M678.305 39.4587H675.911V42.5547H674.165V39.4587H667.163V38.1987L673.607 29.9547H675.551L669.377 37.9107H674.219V35.1747H675.911V37.9107H678.305V39.4587Z" fill="white"/>
<path d="M882 36.5547C882 53.1232 868.569 66.5547 852 66.5547C835.431 66.5547 822 53.1232 822 36.5547C822 19.9861 835.431 6.55469 852 6.55469C868.569 6.55469 882 19.9861 882 36.5547Z" fill="white"/>
<path d="M882 36.5547C882 53.1232 868.569 66.5547 852 66.5547C835.431 66.5547 822 53.1232 822 36.5547C822 19.9861 835.431 6.55469 852 6.55469C868.569 6.55469 882 19.9861 882 36.5547Z" fill="white"/>
<path d="M874.5 36.5547C874.5 48.9811 864.426 59.0547 852 59.0547C839.574 59.0547 829.5 48.9811 829.5 36.5547C829.5 24.1283 839.574 14.0547 852 14.0547C864.426 14.0547 874.5 24.1283 874.5 36.5547Z" fill="white"/>
<path d="M874.5 36.5547C874.5 48.9811 864.426 59.0547 852 59.0547C839.574 59.0547 829.5 48.9811 829.5 36.5547C829.5 24.1283 839.574 14.0547 852 14.0547C864.426 14.0547 874.5 24.1283 874.5 36.5547Z" fill="#6A1AF9"/>
<path d="M874.5 36.5547C874.5 48.9811 860.5 63.0547 852 72.5547C844 63.5547 829.5 48.9811 829.5 36.5547C829.5 24.1283 839.574 14.0547 852 14.0547C864.426 14.0547 874.5 24.1283 874.5 36.5547Z" fill="white"/>
<path d="M874.5 36.5547C874.5 48.9811 860.5 63.0547 852 72.5547C844 63.5547 829.5 48.9811 829.5 36.5547C829.5 24.1283 839.574 14.0547 852 14.0547C864.426 14.0547 874.5 24.1283 874.5 36.5547Z" fill="#6A1AF9"/>
<path d="M850.796 34.9767C852.596 34.9767 853.916 35.3187 854.756 36.0027C855.608 36.6747 856.034 37.5987 856.034 38.7747C856.034 39.5187 855.854 40.1907 855.494 40.7907C855.146 41.3787 854.612 41.8467 853.892 42.1947C853.184 42.5307 852.308 42.6987 851.264 42.6987C850.376 42.6987 849.518 42.5667 848.69 42.3027C847.862 42.0267 847.178 41.6487 846.638 41.1687L847.466 39.7467C847.898 40.1547 848.45 40.4847 849.122 40.7367C849.794 40.9767 850.502 41.0967 851.246 41.0967C852.194 41.0967 852.926 40.8987 853.442 40.5027C853.97 40.0947 854.234 39.5427 854.234 38.8467C854.234 38.0907 853.946 37.5207 853.37 37.1367C852.794 36.7407 851.81 36.5427 850.418 36.5427H847.556L848.222 29.9547H855.332V31.5207H849.734L849.392 34.9767H850.796Z" fill="white"/>
<path d="M1061 36.5547C1061 53.1232 1047.57 66.5547 1031 66.5547C1014.43 66.5547 1001 53.1232 1001 36.5547C1001 19.9861 1014.43 6.55469 1031 6.55469C1047.57 6.55469 1061 19.9861 1061 36.5547Z" fill="white"/>
<path d="M1061 36.5547C1061 53.1232 1047.57 66.5547 1031 66.5547C1014.43 66.5547 1001 53.1232 1001 36.5547C1001 19.9861 1014.43 6.55469 1031 6.55469C1047.57 6.55469 1061 19.9861 1061 36.5547Z" fill="white"/>
<path d="M1053.5 36.5547C1053.5 48.9811 1043.43 59.0547 1031 59.0547C1018.57 59.0547 1008.5 48.9811 1008.5 36.5547C1008.5 24.1283 1018.57 14.0547 1031 14.0547C1043.43 14.0547 1053.5 24.1283 1053.5 36.5547Z" fill="white"/>
<path d="M1053.5 36.5547C1053.5 48.9811 1043.43 59.0547 1031 59.0547C1018.57 59.0547 1008.5 48.9811 1008.5 36.5547C1008.5 24.1283 1018.57 14.0547 1031 14.0547C1043.43 14.0547 1053.5 24.1283 1053.5 36.5547Z" fill="#6A1AF9"/>
<path d="M1008.5 36.5547C1008.5 24.1283 1022.5 10.0547 1031 0.554689C1039 9.55469 1053.5 24.1283 1053.5 36.5547C1053.5 48.9811 1043.43 59.0547 1031 59.0547C1018.57 59.0547 1008.5 48.9811 1008.5 36.5547Z" fill="white"/>
<path d="M1008.5 36.5547C1008.5 24.1283 1022.5 10.0547 1031 0.554689C1039 9.55469 1053.5 24.1283 1053.5 36.5547C1053.5 48.9811 1043.43 59.0547 1031 59.0547C1018.57 59.0547 1008.5 48.9811 1008.5 36.5547Z" fill="#6A1AF9"/>
<path d="M1030.75 34.9047C1031.57 34.9047 1032.31 35.0607 1032.96 35.3727C1033.62 35.6847 1034.14 36.1347 1034.51 36.7227C1034.88 37.2987 1035.07 37.9647 1035.07 38.7207C1035.07 39.5127 1034.87 40.2087 1034.47 40.8087C1034.09 41.4087 1033.55 41.8767 1032.87 42.2127C1032.2 42.5367 1031.44 42.6987 1030.6 42.6987C1028.91 42.6987 1027.6 42.1527 1026.68 41.0607C1025.77 39.9687 1025.31 38.4207 1025.31 36.4167C1025.31 35.0127 1025.56 33.8187 1026.05 32.8347C1026.55 31.8387 1027.25 31.0887 1028.14 30.5847C1029.04 30.0687 1030.08 29.8107 1031.27 29.8107C1031.88 29.8107 1032.46 29.8767 1033 30.0087C1033.54 30.1287 1034 30.3087 1034.4 30.5487L1033.72 31.9527C1033.12 31.5567 1032.31 31.3587 1031.3 31.3587C1030 31.3587 1028.97 31.7667 1028.23 32.5827C1027.48 33.3867 1027.11 34.5627 1027.11 36.1107C1027.11 36.3027 1027.12 36.4527 1027.13 36.5607C1027.49 36.0207 1027.98 35.6127 1028.6 35.3367C1029.24 35.0487 1029.95 34.9047 1030.75 34.9047ZM1030.53 41.2407C1031.36 41.2407 1032.03 41.0187 1032.55 40.5747C1033.06 40.1307 1033.32 39.5367 1033.32 38.7927C1033.32 38.0487 1033.06 37.4607 1032.53 37.0287C1032.01 36.5847 1031.32 36.3627 1030.44 36.3627C1029.88 36.3627 1029.37 36.4707 1028.93 36.6867C1028.5 36.9027 1028.15 37.1967 1027.9 37.5687C1027.66 37.9407 1027.54 38.3547 1027.54 38.8107C1027.54 39.2547 1027.66 39.6627 1027.88 40.0347C1028.12 40.3947 1028.47 40.6887 1028.91 40.9167C1029.37 41.1327 1029.91 41.2407 1030.53 41.2407Z" fill="white"/>
</svg>
